<svg width="256" height="256" viewBox="-10 -10 260 156" xmlns="http://www.w3.org/2000/svg">
  <path d="M239.152 29.5117L177.591 124.102L74.166 92.5719L239.152 29.5117Z" fill="#D4E5F1"/>
  <path d="M93.5833 134.7L74.166 93.0801L177.85 124.028L93.5833 134.7Z" fill="#CADBE9"/>
  <path d="M0 22.7012L74.1681 92.3182L54.0529 105.941L0 22.7012Z" fill="#ABC1D7"/>
  <path d="M93.0867 134.7L73.5743 93.0801L53.7324 106.536L93.0867 134.7Z" fill="#95B0C4"/>
  <path d="M62.0586 81.8851L105.954 0L99.1548 83.3019L73.7147 93.077L62.0586 81.8851Z" fill="#EAE735"/>
  <path d="M152.122 62.996L106.034 0L99.1445 83.2396L152.122 62.996Z" fill="#ED5248"/>
  <path d="M239.156 29.5117L145.311 53.2059L152.454 62.8075L239.156 29.5117Z" fill="#DEEAF5"/>
  <path d="M82.4932 43.3873L0 22.7012L61.6807 80.9687L82.4932 43.3873Z" fill="#E0E9F5"/>
  <path opacity="0.1" d="M71.9971 40.8594L62.0586 80.9658L82.4927 43.5176L71.9971 40.8594Z" fill="black"/>
  <path opacity="0.1" d="M149.164 52.2109L152.122 62.8051L145.311 53.2133L149.164 52.2109Z" fill="black"/>
  <path opacity="0.1" d="M105.933 0L109.74 79.1343L99.1445 83.2396L105.933 0Z" fill="black"/>
  <path opacity="0.1" d="M93.8457 84.753L105.955 0L99.1408 82.7361L93.8457 84.753Z" fill="black"/>
  <path d="M73.1714 93.0766L0 23.3576L0.60937 22.7012L73.3588 91.9981L238.826 29.5466L239.154 30.3903L73.1714 93.0766Z" fill="white"/>
</svg>