<svg width="256" height="256" viewBox="-5 -5 415 415" xmlns="http://www.w3.org/2000/svg">
  <path fill="#2CAE5C" d="M383.099227,210.442194 C395.179642,210.426735 404.984486,220.214299 405,232.303649 C405,232.819947 404.983382,233.336246 404.948033,233.850334 C398.623931,324.917907 389.296294,374.351021 376.965124,382.149674 C351.807901,398.060961 302.979204,406.676626 230.482349,407.99667 C219.502161,408.195672 210.43964,399.44955 210.239699,388.461343 C210.236385,388.340836 210.236385,388.220329 210.236385,388.098717 L210.236385,228.55689 C210.236385,218.674247 218.234027,210.660009 228.108463,210.646742 L383.099227,210.442194 Z M196.215105,19.5417067 L196.218419,19.7225771 L196.218419,384.672572 C196.218419,396.763028 186.425726,406.562753 174.346415,406.562753 C174.106707,406.562753 173.866998,406.562753 173.628395,406.551697 C100.246717,404.139355 52.2009943,395.644196 29.48968,381.065115 C-7.95728944,357.026822 -11.6589604,51.8777046 29.48968,25.8527121 C54.6475658,9.94131476 103.475599,1.32598091 175.973559,0.00324466127 C186.952643,-0.193175516 196.015164,8.55294664 196.215105,19.5417067 Z M230.116711,0.00324466127 L230.482349,0.0066000211 C302.979204,1.32598091 351.807901,9.94131476 376.965124,25.8527121 C389.296294,33.6513654 398.623931,83.0844787 404.948033,174.152052 C404.983382,174.667245 405,175.182439 405,175.698737 C404.984486,187.788087 395.179642,197.575651 383.099227,197.560191 L228.108463,197.355644 C218.234027,197.342377 210.236385,189.328139 210.236385,179.445496 L210.236385,19.9034475 C210.236385,19.7828304 210.236385,19.6623238 210.239699,19.5417067 C210.43964,8.55294664 219.502161,-0.193175516 230.482349,0.0066000211 L230.116711,0.00324466127 Z"/>
</svg>