<svg xmlns="http://www.w3.org/2000/svg" viewBox="0 0 64 64" fill="none">
  <defs>
    <linearGradient id="g1" x1="0" y1="0" x2="64" y2="64" gradientUnits="userSpaceOnUse">
      <stop offset="0%" stop-color="#3B82F6"/>
      <stop offset="100%" stop-color="#1D4ED8"/>
    </linearGradient>
    <linearGradient id="g2" x1="20" y1="10" x2="44" y2="54" gradientUnits="userSpaceOnUse">
      <stop offset="0%" stop-color="#F59E0B"/>
      <stop offset="100%" stop-color="#D97706"/>
    </linearGradient>
  </defs>
  <!-- Rounded square background -->
  <rect x="4" y="4" width="56" height="56" rx="14" fill="url(#g1)"/>
  <!-- Helm wheel (simplified) -->
  <circle cx="32" cy="32" r="14" stroke="white" stroke-width="2.5" fill="none" opacity="0.25"/>
  <circle cx="32" cy="32" r="6" stroke="white" stroke-width="2" fill="none" opacity="0.25"/>
  <!-- Wheel spokes -->
  <line x1="32" y1="18" x2="32" y2="26" stroke="white" stroke-width="2" opacity="0.25"/>
  <line x1="32" y1="38" x2="32" y2="46" stroke="white" stroke-width="2" opacity="0.25"/>
  <line x1="18" y1="32" x2="26" y2="32" stroke="white" stroke-width="2" opacity="0.25"/>
  <line x1="38" y1="32" x2="46" y2="32" stroke="white" stroke-width="2" opacity="0.25"/>
  <!-- Forge hammer — bold, centered -->
  <path d="M29 20h6v20h-6z" rx="2" fill="url(#g2)"/>
  <path d="M24 16h16v8a2 2 0 01-2 2H26a2 2 0 01-2-2v-8z" fill="url(#g2)"/>
  <!-- Anvil base -->
  <path d="M22 42h20v4a2 2 0 01-2 2H24a2 2 0 01-2-2v-4z" fill="white" opacity="0.9"/>
  <path d="M20 39h24a1 1 0 011 1v2H19v-2a1 1 0 011-1z" fill="white"/>
  <!-- Sparks -->
  <circle cx="42" cy="28" r="1.5" fill="#FCD34D"/>
  <circle cx="46" cy="24" r="1" fill="#FCD34D" opacity="0.7"/>
  <circle cx="22" cy="26" r="1" fill="#FCD34D" opacity="0.7"/>
</svg>
